<svg id="Layer_1" data-name="Layer 1" xmlns="http://www.w3.org/2000/svg" viewBox="0 0 512 512"><title>behance-glyph</title><g id="Behance"><circle id="back" cx="256" cy="256" r="256" fill="#262626"/><path id="Behance-2" data-name="Behance" d="M194.29,265.88H148.41v48.41h45.16c15.52,0,27.82-4.94,27.82-23.24C221.4,273.1,211,265.88,194.29,265.88Zm-5.89-70.46h-40V236.6h43c13.62,0,23.86-6.14,23.86-20.95C215.26,198.79,202.37,195.42,188.4,195.42Zm73.22,96.35c0,35.78-30.71,51.07-62.75,51.07H112.64V165.67h83.71c33.83,0,56.83,11.93,56.83,44.8,0,17.23-8.78,29.27-24.19,36.73C250.65,253.34,261.62,269.86,261.62,291.77ZM303.77,177.6h71.29v23.72H303.77Zm31.91,60.7c-22.4,0-28.91,12.53-29.39,22.28h57.57C360.62,242.88,352.91,238.29,335.68,238.29ZM306.3,283.59c1,22.16,11.93,36.37,31.56,36.37,14.2,0,27.22-11.57,29.51-19.51h31.07c-9.88,30.12-32.65,45.89-61.79,45.89-40.58,0-66.12-27.59-66.12-67.09,0-38.18,27.09-67.33,66.12-67.33,43.85,0,65,32.41,62.51,71.67Z" fill="#fff" fill-rule="evenodd"/></g></svg>