<svg id="Layer_1" data-name="Layer 1" xmlns="http://www.w3.org/2000/svg" viewBox="0 0 512 512"><title>twitter-flat</title><g id="Twitter"><circle id="back" cx="256" cy="256" r="256" fill="#55acee"/><path id="Twitter-2" data-name="Twitter" d="M399.36,167.08a117.51,117.51,0,0,1-33.78,9.26,59,59,0,0,0,25.86-32.54,117.78,117.78,0,0,1-37.35,14.27,58.88,58.88,0,0,0-100.24,53.65A167,167,0,0,1,132.6,150.26a58.89,58.89,0,0,0,18.2,78.54,58.57,58.57,0,0,1-26.64-7.36c0,.25,0,.49,0,.74a58.86,58.86,0,0,0,47.19,57.68,59,59,0,0,1-26.57,1,58.89,58.89,0,0,0,55,40.85,118,118,0,0,1-73.06,25.18,119.64,119.64,0,0,1-14-.82,166.48,166.48,0,0,0,90.17,26.43c108.2,0,167.37-89.63,167.37-167.37q0-3.83-.17-7.61A119.46,119.46,0,0,0,399.36,167.08Z" fill="#fff"/></g></svg>